<svg width="24" height="24" viewBox="0 0 24 24" fill="none" xmlns="http://www.w3.org/2000/svg">
<rect width="24" height="24" rx="8" fill="#F9F9FD"/>
<path d="M16.0329 15.3493C15.0101 15.1412 14.3496 14.1433 14.5577 13.1204C14.7658 12.0975 15.7637 11.4371 16.7865 11.6452C17.8094 11.8533 18.4699 12.8512 18.2618 13.874C18.0537 14.8969 17.0558 15.5574 16.0329 15.3493Z" fill="#0864FA"/>
<path fill-rule="evenodd" clip-rule="evenodd" d="M0 12C0 6.34315 0 3.51472 1.75736 1.75736C3.51472 0 6.34315 0 12 0C17.6569 0 20.4853 0 22.2426 1.75736C24 3.51472 24 6.34315 24 12C24 17.6569 24 20.4853 22.2426 22.2426C20.4853 24 17.6569 24 12 24C6.34315 24 3.51472 24 1.75736 22.2426C0 20.4853 0 17.6569 0 12ZM13.0458 16.4866C13.0297 16.5012 13.0133 16.5157 12.9966 16.5302C11.9998 17.3967 10.7449 17.9101 9.42653 17.9907C8.10819 18.0714 6.80008 17.7147 5.70508 16.9762C4.61009 16.2376 3.7894 15.1583 3.3703 13.9058C2.9512 12.6532 2.95712 11.2974 3.38713 10.0485C3.81714 8.79967 4.64722 7.72761 5.74862 6.99861C6.85002 6.26961 8.16119 5.92441 9.47878 6.01654C10.7964 6.10868 12.0467 6.633 13.036 7.50819L11.0481 9.75506C10.5535 9.31746 9.92831 9.0553 9.26951 9.00924C8.61072 8.96317 7.95513 9.13577 7.40443 9.50027C6.85373 9.86477 6.43869 10.4008 6.22369 11.0252C6.00868 11.6496 6.00572 12.3276 6.21527 12.9538C6.42482 13.5801 6.83516 14.1197 7.38266 14.489C7.93016 14.8583 8.58422 15.0366 9.24339 14.9963C9.90256 14.956 10.53 14.6993 11.0284 14.2661C11.5268 13.8328 11.8684 13.2472 12.0001 12.6001C12.4955 10.1647 14.8715 8.59207 17.3069 9.08756C19.7423 9.58304 21.3149 11.959 20.8194 14.3944C20.3239 16.8298 17.948 18.4024 15.5126 17.9069C14.5197 17.7049 13.6702 17.1903 13.0458 16.4866Z" fill="#0864FA"/>
</svg>
